<?xml version="1.0" encoding="utf-8"?>
<!-- Generator: Adobe Illustrator 22.1.0, SVG Export Plug-In . SVG Version: 6.00 Build 0)  -->
<svg version="1.1" id="Layer_1" xmlns="http://www.w3.org/2000/svg" xmlns:xlink="http://www.w3.org/1999/xlink" x="0px" y="0px"
	 viewBox="0 0 120 95" style="enable-background:new 0 0 120 95;" xml:space="preserve">
<style type="text/css">
	.st0{fill:#D1C826;}
</style>
<g>
	<path class="st0" d="M117,39.5c-1.5-0.9-2.9-1.9-4.4-2.8c-4-2.6-8.2-5.2-12.2-7.9C90,22.2,79.5,15.3,70.2,9.2
		c-1.4-0.9-2.8-1.9-4.2-2.8c-1.3-0.9-2.6-1.7-4-2.6c-0.9-0.6-2.2-1.2-3.7-0.2c-4,2.6-8.1,5.3-12.1,7.9c-1.7,1.1-3.4,2.2-5.1,3.3
		l-0.7,0.5c-6.2,4-12.4,8.1-18.6,12.1c-6.3,4.1-12.6,8.2-18.9,12.3C2,40.3,1.5,41,1.5,41.9c0,0.8,0.4,1.5,1.2,2.1
		c6.5,4.3,13.2,8.8,19.9,13.2c0.8,0.5,1.1,1,1.1,1.9c0,5.2,0,10.5,0,15.7c0,2.1,0,4.2,0,6.2c0,2.1,0.8,3.6,2.2,4.5
		c1.9,1.2,3.7,2.1,5.3,2.7c3.9,1.4,8.2,2.3,13.6,2.8c1,0.1,2,0.2,3,0.3c3.2,0.3,6.6,0.6,9.9,0.7c0.6,0,1.1,0,1.7,0
		c3.9,0,7.7-0.3,10.6-0.5c4.2-0.3,8.6-0.8,12.9-1.5c2.8-0.5,5.7-1.4,9-2.8c3.2-1.3,4.8-3.8,4.7-7.4c-0.1-5.2-0.1-10.5-0.1-15.6
		c0-1.8,0-3.6,0-5.4c0-0.8,0.2-1,0.2-1c1.9-1.3,3.8-2.6,5.8-3.9c0.4-0.3,0.9-0.6,1.3-0.9c0,0.3,0,0.5,0,0.8c0,1,0,1.9,0,2.8
		c0,0.6-0.2,0.9-0.8,1.3c-2.1,1.1-3.2,2.8-3.2,5.1c0,1.1,0,2.2,0,3.3l0,1.6c0,2.8,1.5,4.8,4.2,5.7c1.8,0.6,3.9,0.4,5.6-0.8
		c1.5-1,2.5-2.5,2.6-4.1l0-0.3c0.1-1.5,0.2-3,0.2-4.5c0-3-1.2-5-3.6-6.1c-0.2-0.1-0.4-0.5-0.4-0.7c-0.1-2.2-0.1-4.5,0-6.6
		c0-0.2,0.2-0.6,0.5-0.8c2.4-1.7,5.2-3.6,8.1-5.4c1-0.6,1.5-1.4,1.5-2.3C118.5,41.2,118.2,40.3,117,39.5z M104.7,65.3L104.7,65.3
		c0-0.1,0-0.3,0-0.4c0.1-0.6,0.2-1.1,0.2-1.7c0-0.3,0.1-0.6,0.3-0.7c0.2-0.2,0.6-0.3,0.9-0.2c0.5,0.1,1.2,0.6,1.3,0.9
		c0.2,1.7,0.2,3.4,0,5.2c-0.1,0.2-0.8,0.7-1.4,0.7c-0.9,0.1-1.2-0.7-1.3-1.5c-0.1-0.4,0-0.9,0-1.3c0-0.2,0-0.4,0-0.6L104.7,65.3z
		 M92.8,37.6c-3-1.7-6.6-2.8-11.1-3.4L80.2,34c-3.4-0.5-6.9-1-10.3-1.2c-4.8-0.3-9.6-0.3-14.2-0.3c-2.7,0-5.3,0.3-7.6,0.5l-0.1,0
		c-6,0.6-12.2,1.3-18,3.5c-2.5,1-5.3,2.3-6.1,5.7c-0.1,0.5-0.2,0.9-0.2,1.3c0,2.2,0,4.5,0,6.9l0,1.7L8.4,42.1L60.1,8.6
		c2.4,1.6,4.8,3.1,7.2,4.7c5.5,3.6,11.3,7.4,16.9,11c6.2,4,12.5,8.1,18.9,12.2c0.6,0.4,0.8,0.8,0.8,1.5c-0.1,2.8,0,5.5,0,8.5
		c0,0.5-0.1,0.7-0.6,1c-1.8,1.1-3.5,2.2-5.3,3.3c-0.5,0.3-1,0.6-1.5,1c0-0.7,0-1.5,0-2.2c0-2,0-4,0-5.9C96.6,41,95.4,39,92.8,37.6z
		 M52.3,37.9c2.9-0.2,6.1-0.3,9.4-0.3c1.3,0,2.6,0,3.9,0.1c6,0.3,13,0.8,19.8,2.7c1.8,0.5,3.5,1.3,5.3,2.3c0.4,0.2,0.8,0.8,0.8,1.2
		c0,9.2,0,18.5,0,27.6l0,4.4c-0.7-0.2-1.5-0.4-2.2-0.6c-2-0.6-4-1.2-6-1.6c-1.9-0.4-3.8-0.7-5.6-1c-0.7-0.1-1.4-0.2-2.2-0.3
		c-6.2-1-12.5-0.9-18.5-0.8c-1.4,0-2.9,0-4.3,0.1c-3.4,0-6.9,0.5-10.1,1c-3.5,0.5-6.9,1.3-10.1,2c-1,0.2-2,0.6-3,1
		c-0.3,0.1-0.6,0.3-1,0.4l0-7.7c0-7.9,0-16,0-24c0-1.1,0.4-1.6,1.3-2.1c3.3-1.7,6.9-2.4,10-2.9C43.7,38.5,47.8,38.1,52.3,37.9z
		 M32.7,79.5c3.8-1,7.2-1.9,10.7-2.3c4.3-0.5,9.1-0.8,14.9-1c4.3-0.1,8.5,0,12.5,0.3c6.3,0.5,11.2,1.3,15.6,2.7l0.2,0.1
		c1.6,0.5,3.2,1,4.7,2.4c-0.3,0.1-0.5,0.3-0.8,0.4c-0.7,0.4-1.4,0.8-2.2,1.1c-4.1,1.5-8.3,2.3-11.9,2.8c-5,0.7-10,1-14.8,1
		c-1,0-2.1,0-3.1,0c-1.8,0-3.8,0.1-5.6-0.1c-5.5-0.5-10.4-1.2-14.7-1.9c-2.1-0.4-4.2-1.1-6.2-1.8c-0.7-0.2-1.4-0.5-2-0.7
		c-0.3-0.1-0.6-0.3-0.9-0.6c-0.1-0.1-0.2-0.1-0.3-0.2C29.9,80.4,31.3,79.9,32.7,79.5z M111.6,41.9l-3.1,2v-4L111.6,41.9z"/>
	<path class="st0" d="M35.9,61.9C35.9,61.9,36,61.9,35.9,61.9c1.7,0,2.4-0.6,2.4-2.1c0-1.4,0-2.9,0-4.3l0-1.8l0-1.9
		c0-1.5,0-2.9,0-4.4c0-1.5-0.7-2.1-2.3-2.2c-0.9,0-1.5,0.2-1.9,0.5c-0.4,0.3-0.5,0.9-0.5,1.6c0,4,0,8,0,12.4
		C33.7,61.2,34.3,61.9,35.9,61.9z"/>
	<path class="st0" d="M35.9,63.2c-1.5,0-2.3,0.7-2.3,2.3c0,0.9,0.2,1.4,0.6,1.8c0.4,0.4,0.9,0.6,1.8,0.6c0,0,0,0,0,0
		c0.8,0,1.4-0.2,1.8-0.6c0.4-0.4,0.6-1,0.6-1.8c0-0.8-0.2-1.4-0.6-1.7C37.4,63.4,36.7,63.2,35.9,63.2z"/>
</g>
</svg>
