<?xml version="1.0" encoding="utf-8"?>
<!-- Generator: Adobe Illustrator 22.1.0, SVG Export Plug-In . SVG Version: 6.00 Build 0)  -->
<svg version="1.1" id="Layer_1" xmlns="http://www.w3.org/2000/svg" xmlns:xlink="http://www.w3.org/1999/xlink" x="0px" y="0px"
	 viewBox="0 0 120 95" style="enable-background:new 0 0 120 95;" xml:space="preserve">
<style type="text/css">
	.st0{fill:#D1C826;}
</style>
<g>
	<path class="st0" d="M11.6,58.4C11.6,58.4,11.6,58.4,11.6,58.4c0.9,0.2,1.5,0.1,2-0.3c0.5-0.3,0.8-0.9,1-1.8c0.2-0.9,0.1-1.5-0.3-2
		c-0.3-0.5-1-0.8-1.9-1c-1.7-0.3-2.6,0.3-2.9,2c-0.2,0.9-0.1,1.6,0.2,2.1C10.1,57.9,10.7,58.2,11.6,58.4z"/>
	<path class="st0" d="M117.7,72.6c-1-2.2-2.5-3.7-4.7-4.7c-0.3-0.2-0.8-0.4-0.9-0.7c-0.2-0.8-0.3-1.7-0.5-2.6
		c-0.3-2.4-0.4-4.8-1-7.2c-0.7-3-1.7-6-2.9-8.9c-1-2.5-2.5-4.8-3.7-7.3c-0.2-0.5-0.3-1.2-0.1-1.8c0.2-0.7,0.8-1.2,1.1-1.9
		c1.3-2,2.2-4.1,2-6.6c-0.3-3.9-3.7-6.6-7-6.8C97,24,94.6,25.7,93,28.5c-5-4.1-10.7-7.1-16.6-9.2c0.1-1.3,0.2-2.5,0.1-3.6
		c-0.1-1.9-2.1-4.1-4-4.4c-1.6-0.3-3.2-0.6-4.8-0.8c-4.3-0.4-7.4-0.5-10-0.4c-3,0.1-5.9,0.8-8.8,1c-2.8,0.2-5.3,2.7-5,5.5
		c0.1,0.9,0,1.8,0,2.6c-2.1,0.9-4.1,1.7-6.1,2.6c-3.5,1.5-6.7,3.5-9.7,5.9c-0.6,0.5-1,0.6-1.6-0.2c-1.6-2.1-3.8-3.3-6.5-3.1
		c-1.8,0.1-3.4,0.8-4.7,2.1c-1.9,1.7-3.1,5.7-2.2,7.6c1,2,2.2,4,3.2,6c-1.3,2.5-2.8,5-4.1,7.5c-0.7,1.3-0.4,3.2,0.3,3.9
		c1.5,1.4,3.8,1,4.8-1.3c0.7-1.5,1.5-3,2.3-4.7c0.4,0.8,0.7,1.3,1,1.9c2.1,3.5,4.4,7,6.4,10.6c1.9,3.5,6.1,5.3,9.9,3.6
		c4.1-1.9,5.7-6.6,3.7-10.5C40,49.3,39,48,38.1,46.5c-2.5-4.2-5-8.4-7.5-12.6c-0.4-0.6-0.3-1,0.3-1.5c1.3-0.9,2.6-1.8,3.9-2.7
		c3-2.1,6.3-3.6,9.8-4.9c0.1,0.3,0.2,0.6,0.2,0.8c0.5,3.8,0.9,7.5,1.3,11.3c0.4,3.3,0.6,6.7,1,10c0.3,1.9,0.6,3.8,1.4,5.6
		c1.6,3.8,4.6,6.1,8.5,7c2.9,0.6,5.8,0.6,8.6-0.8c2.5-1.2,4.4-3,5.8-5.4c1.5-2.4,1.4-5.1,1.9-7.7c0.4-2.2,0.6-4.5,0.8-6.7
		c0.4-4,0.7-8,1.1-12c0.1-0.6,0.3-1.2,0.4-1.8c5.4,1.9,10.1,4.7,14.3,8.3c-1.7,2.9-3.4,5.7-5,8.5c-1.6,2.6-3,5.4-4.7,7.9
		c-2,2.8-1.9,7,0.2,9.5c2.7,3.2,7.7,3.6,10.7,0.8c2.3-2.2,3.4-5.2,5.1-7.8c1.3-1.9,2.5-3.9,3.6-5.9c0.3-0.6,0.5-0.5,0.8,0
		c1.7,3.4,3.3,6.8,4.1,10.6c0.3,1.4,0.6,2.8,0.8,4.1c0.3,1.9,0.5,3.9,0.8,5.9c-31.1,0-61.9,0-92.8,0c0.1-1.7-0.1,0.4-0.1-1.2
		c0-1.7-1-2.8-2.6-3c-1.2-0.1-2.7,1.2-2.9,2.7C8,67.1,7.6,67.7,6.9,68c-2.7,1.2-4.4,3.3-5.1,6.1C1,77.4,2,80.3,4.2,82.9
		C4.4,83.2,7.1,85,7.8,85c37,0,67.7,0,105.1,0c1.2-0.6,3-2.2,3.4-2.8c0.7-1.2,1.5-2.5,1.9-3.9C118.7,76.4,118.6,74.5,117.7,72.6z
		 M32.5,47.9c1,1.7,2.1,3.5,3.1,5.2c0.2,0.4,0.2,0.9,0.4,1.3c0.1,1.1-0.7,1.7-1.5,1.9c-0.6,0.1-1.5-0.3-1.8-0.8
		c-1.1-1.5-2-3.2-2.9-4.7c-1.9-3.2-3.9-6.3-5.7-9.5c-1.7-3-3.4-6-5.1-9c-0.4-0.8,0-1.6,0.7-2c0.8-0.5,1.8-0.6,2.5,0.3
		c1.1,1.6,2.1,3.3,3.1,5C27.6,39.7,30.1,43.8,32.5,47.9z M70.1,22.7c-0.1,0.9-0.1,1.8-0.2,2.8c-0.3,3.4-0.6,6.7-1,10.1
		c-0.2,2.3-0.5,4.6-0.8,7c-0.2,1.9-0.4,3.9-0.7,5.8c-0.9,4.4-5.6,7.3-9.9,5.5c-2.8-1.2-4.3-3.2-4.6-6.2c-0.2-2.2-0.5-4.5-0.7-6.7
		c-0.5-4.7-1-9.4-1.5-14.1c-0.2-2.3-0.5-4.6-0.8-6.8c-0.1-1.1-0.4-2.2-0.6-3.4c7.2-1.4,14.2-1.4,21.5,0
		C70.6,18.6,70.3,20.7,70.1,22.7z M100,35.3c-1.5,2.5-3,4.9-4.5,7.4c-2.6,4.3-5.1,8.6-7.7,12.8c-0.6,0.9-1.6,1.1-2.5,0.5
		c-1.1-0.7-1.3-1.5-0.7-2.5c2.4-4.1,4.8-8.3,7.3-12.4c2-3.4,4-6.7,6-10.1c0.6-1,1.5-1.3,2.5-0.9c0.6,0.3,1,1,1.5,1.6
		C101.2,33.1,100.6,34.2,100,35.3z M112.9,76.5c-0.2,1.6-1.7,3.3-3.3,3.5c-0.3,0-0.6,0-0.9,0c-32.5,0-65,0-97.4,0
		c-2.4,0-4.4-2.2-4.2-4c0.2-1.5,1.8-3.2,3.3-3.3c0.5,0,0.9,0,1.4,0c16.1,0,32.2,0,48.3,0c16.3,0,32.6,0,48.8,0
		C111,72.6,113.1,74.8,112.9,76.5z"/>
</g>
</svg>
